<svg width="128" height="20" viewBox="0 0 128 20" fill="none" xmlns="http://www.w3.org/2000/svg">
<path d="M126 1.18607V4.20932H116.321V8.23258H124.757V11.2558H116.321V15.7907H126V18.814H112.755V1.18607H126Z" fill="white"/>
<path d="M104.336 10.0233C106.002 10.0233 107.057 9.04653 107.057 7.1163C107.057 5.18606 106.002 4.20932 104.336 4.20932H100.182V10.0233H104.336ZM111.467 18.814H107.198L103.375 13.0465H100.182V18.814H96.6168V1.18607H105.11C108.347 1.18607 110.623 3.44188 110.623 6.97676C110.623 9.06979 110.06 10.8372 107.221 12.4186L111.467 18.814Z" fill="white"/>
<path d="M85.4512 15.9302C88.8056 15.9302 90.8933 13.6512 90.8933 10C90.8933 6.34884 88.8056 4.06977 85.4512 4.06977C82.0969 4.06977 80.0092 6.34884 80.0092 10C80.0092 13.6512 82.0969 15.9302 85.4512 15.9302ZM85.4512 1C90.7291 1 94.4587 4.72093 94.4587 10C94.4587 15.2791 90.7291 19 85.4512 19C80.1734 19 76.4437 15.2791 76.4437 10C76.4437 4.72093 80.1734 1 85.4512 1Z" fill="white"/>
<path d="M63.2191 14.7209L58.4808 7.09304V18.814H54.9153V1.18607H58.95L64.6266 10.1861L70.3032 1.18607H74.3378V18.814H70.7723V7.09304L66.034 14.7209H63.2191Z" fill="white"/>
<path d="M53.9626 1.18607L47.6292 11.9303V18.814H44.0638V11.9303L37.7303 1.18607H41.8588L45.8465 8.16281L49.8342 1.18607H53.9626Z" fill="white"/>
<path d="M33.8211 1.18607L40.2249 18.814H36.4248L34.8297 14.3954H28.379L26.7371 18.814H22.937L29.505 1.18607H33.8211ZM29.505 11.3721H33.7273L31.663 5.58141L29.505 11.3721Z" fill="white"/>
<path d="M25.2546 1.18603L20.6101 18.8139H17.5372L13.4557 7.04649L9.84331 18.8139H6.77044L1 1.18603H4.75313L8.3186 12.4418L11.4853 1.20928H15.3792L18.7335 12.4418L21.5015 1.18603H25.2546Z" fill="white"/>
</svg>
