<svg width="259" height="38" viewBox="0 0 259 38" fill="none" xmlns="http://www.w3.org/2000/svg">
<path d="M174.601 0C185.512 0.000100404 193.224 7.69317 193.224 18.6074C193.224 29.5215 185.512 37.2147 174.601 37.2148C163.689 37.2148 155.978 29.5216 155.978 18.6074C155.978 7.6931 163.689 0 174.601 0ZM15.1309 23.6553L21.6777 0.432617H29.7285L36.6631 23.6553L42.3857 0.384766H50.1455L40.543 36.8301H34.1904L25.752 12.501L18.2832 36.8301H11.9297L0 0.384766H7.75977L15.1309 23.6553ZM81.0957 36.8301H73.2393L69.9414 27.6943H56.6055L53.2109 36.8301H45.3535L58.9326 0.384766H67.8564L81.0957 36.8301ZM92.7188 14.8086L100.963 0.384766H109.499L96.4043 22.5977V36.8301H89.0332V22.5977L75.9385 0.384766H84.4746L92.7188 14.8086ZM131.546 18.9922L143.282 0.384766H151.624V36.8301H144.252V12.5967L134.456 28.3672H128.636L118.84 12.5967V36.8301H111.469V0.384766H119.81L131.546 18.9922ZM215.245 0.384766C221.938 0.384821 226.642 5.04833 226.642 12.3564C226.642 16.6837 225.477 20.3379 219.609 23.6074L228.388 36.8301H219.562L211.656 24.9053H205.057V36.8301H197.685V0.384766H215.245ZM258.434 6.63477H238.423V14.9531H255.863V21.2031H238.423V30.5791H258.434V36.8301H231.051V0.384766H258.434V6.63477ZM174.601 6.34668C167.666 6.34668 163.349 11.0587 163.349 18.6074C163.349 26.1559 167.666 30.8682 174.601 30.8682C181.535 30.8681 185.851 26.1559 185.852 18.6074C185.852 11.0588 181.536 6.34678 174.601 6.34668ZM58.9326 21.4443H67.6621L63.3945 9.47168L58.9326 21.4443ZM205.057 18.6553H213.645C217.088 18.6553 219.27 16.636 219.271 12.6455C219.271 8.65481 217.088 6.63477 213.645 6.63477H205.057V18.6553Z" fill="#15B1CC"/>
</svg>
