<svg width="480" height="74" viewBox="0 0 480 74" fill="none" xmlns="http://www.w3.org/2000/svg">
<mask id="path-1-outside-1_260_688" maskUnits="userSpaceOnUse" x="3.59137" y="2.72702" width="469" height="70" fill="black">
<rect fill="white" x="3.59137" y="2.72702" width="469" height="70"/>
<path fill-rule="evenodd" clip-rule="evenodd" d="M320.364 3.72702C340.036 3.7271 353.937 17.5964 353.937 37.2729C353.937 56.9493 340.036 70.8178 320.364 70.8178C300.692 70.8178 286.791 56.9494 286.791 37.2729C286.791 17.5964 300.692 3.72702 320.364 3.72702ZM32.8697 46.3745L44.6724 4.50729H59.1861L71.689 46.3745L82.0054 4.42038H95.9947L78.6832 70.1245H67.23L52.0172 26.2641L38.5523 70.1245H27.0992L5.59137 4.42038H19.5797L32.8697 46.3745ZM151.793 70.1245H137.628L131.683 53.6557H107.64L101.52 70.1245H87.356L111.836 4.42038H127.924L151.793 70.1245ZM172.746 30.4253L187.609 4.42038H202.997L179.391 44.4673V70.1245H166.101V44.4673L142.495 4.42038H157.882L172.746 30.4253ZM242.745 37.9663L263.903 4.42038H278.941V70.1245H265.651V26.438L247.991 54.8686H237.499L219.837 26.438V70.1245H206.548V4.42038H221.586L242.745 37.9663ZM393.638 4.42038C405.704 4.42038 414.185 12.8289 414.185 26.0044C414.185 33.8055 412.086 40.3933 401.507 46.2876L417.333 70.1245H401.419L387.169 48.6274H375.27V70.1245H361.981V4.42038H393.638ZM471.5 15.6889H435.423V30.685H466.866V41.9536H435.423V58.8559H471.5V70.1245H422.134V4.42038H471.5V15.6889ZM320.364 15.1694C307.861 15.1694 300.08 23.664 300.08 37.2729C300.08 50.8817 307.861 59.3764 320.364 59.3764C332.866 59.3764 340.648 50.8816 340.648 37.2729C340.648 23.6641 332.866 15.1695 320.364 15.1694ZM111.836 42.3872H127.575L119.88 20.8032L111.836 42.3872ZM375.27 37.3598H390.753C396.961 37.3597 400.895 33.7183 400.895 26.5239C400.895 19.3297 396.961 15.689 390.753 15.6889H375.27V37.3598Z"/>
</mask>
<path fill-rule="evenodd" clip-rule="evenodd" d="M320.364 3.72702C340.036 3.7271 353.937 17.5964 353.937 37.2729C353.937 56.9493 340.036 70.8178 320.364 70.8178C300.692 70.8178 286.791 56.9494 286.791 37.2729C286.791 17.5964 300.692 3.72702 320.364 3.72702ZM32.8697 46.3745L44.6724 4.50729H59.1861L71.689 46.3745L82.0054 4.42038H95.9947L78.6832 70.1245H67.23L52.0172 26.2641L38.5523 70.1245H27.0992L5.59137 4.42038H19.5797L32.8697 46.3745ZM151.793 70.1245H137.628L131.683 53.6557H107.64L101.52 70.1245H87.356L111.836 4.42038H127.924L151.793 70.1245ZM172.746 30.4253L187.609 4.42038H202.997L179.391 44.4673V70.1245H166.101V44.4673L142.495 4.42038H157.882L172.746 30.4253ZM242.745 37.9663L263.903 4.42038H278.941V70.1245H265.651V26.438L247.991 54.8686H237.499L219.837 26.438V70.1245H206.548V4.42038H221.586L242.745 37.9663ZM393.638 4.42038C405.704 4.42038 414.185 12.8289 414.185 26.0044C414.185 33.8055 412.086 40.3933 401.507 46.2876L417.333 70.1245H401.419L387.169 48.6274H375.27V70.1245H361.981V4.42038H393.638ZM471.5 15.6889H435.423V30.685H466.866V41.9536H435.423V58.8559H471.5V70.1245H422.134V4.42038H471.5V15.6889ZM320.364 15.1694C307.861 15.1694 300.08 23.664 300.08 37.2729C300.08 50.8817 307.861 59.3764 320.364 59.3764C332.866 59.3764 340.648 50.8816 340.648 37.2729C340.648 23.6641 332.866 15.1695 320.364 15.1694ZM111.836 42.3872H127.575L119.88 20.8032L111.836 42.3872ZM375.27 37.3598H390.753C396.961 37.3597 400.895 33.7183 400.895 26.5239C400.895 19.3297 396.961 15.689 390.753 15.6889H375.27V37.3598Z" fill="white"/>
<path d="M320.364 3.72702V2.72702V2.72702V3.72702ZM353.937 37.2729L354.937 37.2729V37.2729H353.937ZM320.364 70.8178V71.8178V71.8178V70.8178ZM286.791 37.2729H285.791V37.2729L286.791 37.2729ZM32.8697 46.3745L31.9164 46.6765L32.9255 49.862L33.8322 46.6458L32.8697 46.3745ZM44.6724 4.50729V3.50729H43.9154L43.7099 4.23596L44.6724 4.50729ZM59.1861 4.50729L60.1443 4.22115L59.9311 3.50729H59.1861V4.50729ZM71.689 46.3745L70.7308 46.6606L71.7825 50.1822L72.6601 46.6133L71.689 46.3745ZM82.0054 4.42038V3.42038H81.2215L81.0344 4.1816L82.0054 4.42038ZM95.9947 4.42038L96.9617 4.67516L97.2923 3.42038H95.9947V4.42038ZM78.6832 70.1245V71.1245H79.4538L79.6502 70.3793L78.6832 70.1245ZM67.23 70.1245L66.2853 70.4522L66.5184 71.1245H67.23V70.1245ZM52.0172 26.2641L52.9619 25.9364L51.9592 23.0455L51.0612 25.9707L52.0172 26.2641ZM38.5523 70.1245V71.1245H39.2914L39.5083 70.418L38.5523 70.1245ZM27.0992 70.1245L26.1488 70.4356L26.3743 71.1245H27.0992V70.1245ZM5.59137 4.42038V3.42038H4.21181L4.64099 4.73148L5.59137 4.42038ZM19.5797 4.42038L20.533 4.11839L20.3118 3.42038H19.5797V4.42038ZM151.793 70.1245V71.1245H153.22L152.732 69.783L151.793 70.1245ZM137.628 70.1245L136.688 70.464L136.926 71.1245H137.628V70.1245ZM131.683 53.6557L132.624 53.3162L132.385 52.6557H131.683V53.6557ZM107.64 53.6557V52.6557H106.945L106.703 53.3074L107.64 53.6557ZM101.52 70.1245V71.1245H102.215L102.457 70.4728L101.52 70.1245ZM87.356 70.1245L86.4189 69.7753L85.9163 71.1245H87.356V70.1245ZM111.836 4.42038V3.42038H111.142L110.899 4.07124L111.836 4.42038ZM127.924 4.42038L128.864 4.07894L128.625 3.42038H127.924V4.42038ZM172.746 30.4253L171.877 30.9215L172.746 32.4405L173.614 30.9215L172.746 30.4253ZM187.609 4.42038V3.42038H187.029L186.741 3.92416L187.609 4.42038ZM202.997 4.42038L203.858 4.92817L204.747 3.42038H202.997V4.42038ZM179.391 44.4673L178.53 43.9595L178.391 44.1945V44.4673H179.391ZM179.391 70.1245V71.1245H180.391V70.1245H179.391ZM166.101 70.1245H165.101V71.1245H166.101V70.1245ZM166.101 44.4673H167.101V44.1945L166.963 43.9594L166.101 44.4673ZM142.495 4.42038V3.42038H140.744L141.633 4.92819L142.495 4.42038ZM157.882 4.42038L158.751 3.92416L158.463 3.42038H157.882V4.42038ZM242.745 37.9663L241.899 38.4998L242.745 39.8408L243.59 38.4998L242.745 37.9663ZM263.903 4.42038V3.42038H263.351L263.057 3.8869L263.903 4.42038ZM278.941 4.42038H279.941V3.42038H278.941V4.42038ZM278.941 70.1245V71.1245H279.941V70.1245H278.941ZM265.651 70.1245H264.651V71.1245H265.651V70.1245ZM265.651 26.438H266.651V22.9329L264.801 25.9103L265.651 26.438ZM247.991 54.8686V55.8686H248.547L248.84 55.3963L247.991 54.8686ZM237.499 54.8686L236.649 55.3963L236.943 55.8686H237.499V54.8686ZM219.837 26.438L220.687 25.9103L218.837 22.9331V26.438H219.837ZM219.837 70.1245V71.1245H220.837V70.1245H219.837ZM206.548 70.1245H205.548V71.1245H206.548V70.1245ZM206.548 4.42038V3.42038H205.548V4.42038H206.548ZM221.586 4.42038L222.432 3.8869L222.138 3.42038H221.586V4.42038ZM414.185 26.0044L415.185 26.0044V26.0044H414.185ZM401.507 46.2876L401.021 45.414L400.076 45.9401L400.674 46.8407L401.507 46.2876ZM417.333 70.1245V71.1245H419.197L418.166 69.5714L417.333 70.1245ZM401.419 70.1245L400.586 70.677L400.883 71.1245H401.419V70.1245ZM387.169 48.6274L388.002 48.0749L387.705 47.6274H387.169V48.6274ZM375.27 48.6274V47.6274H374.27V48.6274H375.27ZM375.27 70.1245V71.1245H376.27V70.1245H375.27ZM361.981 70.1245H360.981V71.1245H361.981V70.1245ZM361.981 4.42038V3.42038H360.981V4.42038H361.981ZM471.5 15.6889V16.6889H472.5V15.6889H471.5ZM435.423 15.6889V14.6889H434.423V15.6889H435.423ZM435.423 30.685H434.423V31.685H435.423V30.685ZM466.866 30.685H467.866V29.685H466.866V30.685ZM466.866 41.9536V42.9536H467.866V41.9536H466.866ZM435.423 41.9536V40.9536H434.423V41.9536H435.423ZM435.423 58.8559H434.423V59.8559H435.423V58.8559ZM471.5 58.8559H472.5V57.8559H471.5V58.8559ZM471.5 70.1245V71.1245H472.5V70.1245H471.5ZM422.134 70.1245H421.134V71.1245H422.134V70.1245ZM422.134 4.42038V3.42038H421.134V4.42038H422.134ZM471.5 4.42038H472.5V3.42038H471.5V4.42038ZM320.364 15.1694V14.1694V14.1694V15.1694ZM300.08 37.2729H299.08V37.2729L300.08 37.2729ZM320.364 59.3764V60.3764V60.3764V59.3764ZM340.648 37.2729L341.648 37.2729V37.2729H340.648ZM111.836 42.3872L110.899 42.038L110.397 43.3872H111.836V42.3872ZM127.575 42.3872V43.3872H128.993L128.517 42.0514L127.575 42.3872ZM119.88 20.8032L120.822 20.4674L119.901 17.8836L118.943 20.454L119.88 20.8032ZM375.27 37.3598H374.27V38.3598H375.27V37.3598ZM390.753 37.3598V38.3598V38.3598V37.3598ZM400.895 26.5239H401.895V26.5239L400.895 26.5239ZM390.753 15.6889V14.6889V14.6889V15.6889ZM375.27 15.6889V14.6889H374.27V15.6889H375.27ZM320.364 3.72702V4.72702C329.959 4.72706 338.09 8.10538 343.821 13.8289C349.551 19.5522 352.937 27.6766 352.937 37.2729H353.937H354.937C354.937 27.1927 351.372 18.5442 345.234 12.4138C339.096 6.28345 330.441 2.72706 320.364 2.72702V3.72702ZM353.937 37.2729L352.937 37.2729C352.937 46.8691 349.551 54.9933 343.821 60.7164C338.09 66.4397 329.958 69.8178 320.364 69.8178V70.8178V71.8178C330.441 71.8178 339.096 68.2616 345.234 62.1316C351.372 56.0013 354.937 47.3531 354.937 37.2729L353.937 37.2729ZM320.364 70.8178V69.8178C310.769 69.8178 302.638 66.4397 296.907 60.7165C291.176 54.9933 287.791 46.8692 287.791 37.2729L286.791 37.2729L285.791 37.2729C285.791 47.3531 289.356 56.0014 295.494 62.1316C301.632 68.2617 310.287 71.8178 320.364 71.8178V70.8178ZM286.791 37.2729H287.791C287.791 27.6766 291.176 19.5522 296.907 13.8288C302.638 8.10533 310.769 4.72702 320.364 4.72702V3.72702V2.72702C310.287 2.72702 301.632 6.2834 295.494 12.4137C289.355 18.5442 285.791 27.1927 285.791 37.2729H286.791ZM32.8697 46.3745L33.8322 46.6458L45.6349 4.77863L44.6724 4.50729L43.7099 4.23596L31.9072 46.1031L32.8697 46.3745ZM44.6724 4.50729V5.50729H59.1861V4.50729V3.50729H44.6724V4.50729ZM59.1861 4.50729L58.2279 4.79344L70.7308 46.6606L71.689 46.3745L72.6472 46.0883L60.1443 4.22115L59.1861 4.50729ZM71.689 46.3745L72.6601 46.6133L82.9765 4.65916L82.0054 4.42038L81.0344 4.1816L70.718 46.1357L71.689 46.3745ZM82.0054 4.42038V5.42038H95.9947V4.42038V3.42038H82.0054V4.42038ZM95.9947 4.42038L95.0277 4.1656L77.7162 69.8697L78.6832 70.1245L79.6502 70.3793L96.9617 4.67516L95.9947 4.42038ZM78.6832 70.1245V69.1245H67.23V70.1245V71.1245H78.6832V70.1245ZM67.23 70.1245L68.1748 69.7968L52.9619 25.9364L52.0172 26.2641L51.0724 26.5918L66.2853 70.4522L67.23 70.1245ZM52.0172 26.2641L51.0612 25.9707L37.5963 69.831L38.5523 70.1245L39.5083 70.418L52.9731 26.5576L52.0172 26.2641ZM38.5523 70.1245V69.1245H27.0992V70.1245V71.1245H38.5523V70.1245ZM27.0992 70.1245L28.0496 69.8134L6.54175 4.10928L5.59137 4.42038L4.64099 4.73148L26.1488 70.4356L27.0992 70.1245ZM5.59137 4.42038V5.42038H19.5797V4.42038V3.42038H5.59137V4.42038ZM19.5797 4.42038L18.6263 4.72237L31.9164 46.6765L32.8697 46.3745L33.823 46.0725L20.533 4.11839L19.5797 4.42038ZM151.793 70.1245V69.1245H137.628V70.1245V71.1245H151.793V70.1245ZM137.628 70.1245L138.569 69.7849L132.624 53.3162L131.683 53.6557L130.743 53.9953L136.688 70.464L137.628 70.1245ZM131.683 53.6557V52.6557H107.64V53.6557V54.6557H131.683V53.6557ZM107.64 53.6557L106.703 53.3074L100.583 69.7761L101.52 70.1245L102.457 70.4728L108.578 54.0041L107.64 53.6557ZM101.52 70.1245V69.1245H87.356V70.1245V71.1245H101.52V70.1245ZM87.356 70.1245L88.2931 70.4736L112.774 4.76952L111.836 4.42038L110.899 4.07124L86.4189 69.7753L87.356 70.1245ZM111.836 4.42038V5.42038H127.924V4.42038V3.42038H111.836V4.42038ZM127.924 4.42038L126.984 4.76182L150.853 70.4659L151.793 70.1245L152.732 69.783L128.864 4.07894L127.924 4.42038ZM172.746 30.4253L173.614 30.9215L188.477 4.9166L187.609 4.42038L186.741 3.92416L171.877 29.929L172.746 30.4253ZM187.609 4.42038V5.42038H202.997V4.42038V3.42038H187.609V4.42038ZM202.997 4.42038L202.135 3.91258L178.53 43.9595L179.391 44.4673L180.253 44.975L203.858 4.92817L202.997 4.42038ZM179.391 44.4673H178.391V70.1245H179.391H180.391V44.4673H179.391ZM179.391 70.1245V69.1245H166.101V70.1245V71.1245H179.391V70.1245ZM166.101 70.1245H167.101V44.4673H166.101H165.101V70.1245H166.101ZM166.101 44.4673L166.963 43.9594L143.356 3.91257L142.495 4.42038L141.633 4.92819L165.24 44.9751L166.101 44.4673ZM142.495 4.42038V5.42038H157.882V4.42038V3.42038H142.495V4.42038ZM157.882 4.42038L157.014 4.9166L171.877 30.9215L172.746 30.4253L173.614 29.929L158.751 3.92416L157.882 4.42038ZM242.745 37.9663L243.59 38.4998L264.749 4.95386L263.903 4.42038L263.057 3.8869L241.899 37.4328L242.745 37.9663ZM263.903 4.42038V5.42038H278.941V4.42038V3.42038H263.903V4.42038ZM278.941 4.42038H277.941V70.1245H278.941H279.941V4.42038H278.941ZM278.941 70.1245V69.1245H265.651V70.1245V71.1245H278.941V70.1245ZM265.651 70.1245H266.651V26.438H265.651H264.651V70.1245H265.651ZM265.651 26.438L264.801 25.9103L247.141 54.341L247.991 54.8686L248.84 55.3963L266.5 26.9656L265.651 26.438ZM247.991 54.8686V53.8686H237.499V54.8686V55.8686H247.991V54.8686ZM237.499 54.8686L238.348 54.3409L220.687 25.9103L219.837 26.438L218.988 26.9656L236.649 55.3963L237.499 54.8686ZM219.837 26.438H218.837V70.1245H219.837H220.837V26.438H219.837ZM219.837 70.1245V69.1245H206.548V70.1245V71.1245H219.837V70.1245ZM206.548 70.1245H207.548V4.42038H206.548H205.548V70.1245H206.548ZM206.548 4.42038V5.42038H221.586V4.42038V3.42038H206.548V4.42038ZM221.586 4.42038L220.741 4.95386L241.899 38.4998L242.745 37.9663L243.59 37.4328L222.432 3.8869L221.586 4.42038ZM393.638 4.42038V5.42038C399.432 5.42038 404.298 7.43417 407.718 10.967C411.139 14.5016 413.185 19.6345 413.185 26.0044H414.185H415.185C415.185 19.1987 412.991 13.5396 409.155 9.57611C405.317 5.61084 399.91 3.42038 393.638 3.42038V4.42038ZM414.185 26.0044L413.185 26.0044C413.185 29.8179 412.671 33.2259 410.937 36.3792C409.205 39.5299 406.196 42.5306 401.021 45.414L401.507 46.2876L401.994 47.1611C407.398 44.1503 410.728 40.9099 412.69 37.3429C414.65 33.7785 415.185 29.992 415.185 26.0044L414.185 26.0044ZM401.507 46.2876L400.674 46.8407L416.499 70.6776L417.333 70.1245L418.166 69.5714L402.341 45.7345L401.507 46.2876ZM417.333 70.1245V69.1245H401.419V70.1245V71.1245H417.333V70.1245ZM401.419 70.1245L402.253 69.5719L388.002 48.0749L387.169 48.6274L386.335 49.18L400.586 70.677L401.419 70.1245ZM387.169 48.6274V47.6274H375.27V48.6274V49.6274H387.169V48.6274ZM375.27 48.6274H374.27V70.1245H375.27H376.27V48.6274H375.27ZM375.27 70.1245V69.1245H361.981V70.1245V71.1245H375.27V70.1245ZM361.981 70.1245H362.981V4.42038H361.981H360.981V70.1245H361.981ZM361.981 4.42038V5.42038H393.638V4.42038V3.42038H361.981V4.42038ZM471.5 15.6889V14.6889H435.423V15.6889V16.6889H471.5V15.6889ZM435.423 15.6889H434.423V30.685H435.423H436.423V15.6889H435.423ZM435.423 30.685V31.685H466.866V30.685V29.685H435.423V30.685ZM466.866 30.685H465.866V41.9536H466.866H467.866V30.685H466.866ZM466.866 41.9536V40.9536H435.423V41.9536V42.9536H466.866V41.9536ZM435.423 41.9536H434.423V58.8559H435.423H436.423V41.9536H435.423ZM435.423 58.8559V59.8559H471.5V58.8559V57.8559H435.423V58.8559ZM471.5 58.8559H470.5V70.1245H471.5H472.5V58.8559H471.5ZM471.5 70.1245V69.1245H422.134V70.1245V71.1245H471.5V70.1245ZM422.134 70.1245H423.134V4.42038H422.134H421.134V70.1245H422.134ZM422.134 4.42038V5.42038H471.5V4.42038V3.42038H422.134V4.42038ZM471.5 4.42038H470.5V15.6889H471.5H472.5V4.42038H471.5ZM320.364 15.1694V14.1694C313.876 14.1694 308.521 16.3806 304.796 20.4419C301.08 24.4932 299.08 30.2819 299.08 37.2729H300.08H301.08C301.08 30.6551 302.97 25.392 306.27 21.7938C309.561 18.2056 314.349 16.1694 320.364 16.1694V15.1694ZM300.08 37.2729L299.08 37.2729C299.08 44.2639 301.08 50.0526 304.796 54.1039C308.522 58.1652 313.876 60.3764 320.364 60.3764V59.3764V58.3764C314.349 58.3764 309.562 56.3403 306.27 52.752C302.97 49.1538 301.08 43.8907 301.08 37.2729L300.08 37.2729ZM320.364 59.3764V60.3764C326.852 60.3764 332.206 58.1652 335.931 54.1039C339.647 50.0525 341.648 44.2639 341.648 37.2729L340.648 37.2729L339.648 37.2729C339.648 43.8907 337.758 49.1538 334.457 52.752C331.166 56.3402 326.378 58.3764 320.364 58.3764V59.3764ZM340.648 37.2729H341.648C341.648 30.2819 339.647 24.4933 335.931 20.4419C332.206 16.3806 326.852 14.1694 320.364 14.1694V15.1694V16.1694C326.378 16.1694 331.166 18.2056 334.457 21.7938C337.758 25.392 339.648 30.6551 339.648 37.2729H340.648ZM111.836 42.3872V43.3872H127.575V42.3872V41.3872H111.836V42.3872ZM127.575 42.3872L128.517 42.0514L120.822 20.4674L119.88 20.8032L118.938 21.139L126.633 42.723L127.575 42.3872ZM119.88 20.8032L118.943 20.454L110.899 42.038L111.836 42.3872L112.774 42.7364L120.817 21.1524L119.88 20.8032ZM375.27 37.3598V38.3598H390.753V37.3598V36.3598H375.27V37.3598ZM390.753 37.3598V38.3598C394.052 38.3598 396.874 37.3884 398.869 35.3368C400.861 33.2884 401.895 30.2984 401.895 26.5239H400.895H399.895C399.895 29.9438 398.962 32.3717 397.435 33.9426C395.911 35.5105 393.663 36.3598 390.753 36.3598V37.3598ZM400.895 26.5239L401.895 26.5239C401.895 22.7495 400.861 19.7597 398.869 17.7115C396.874 15.6602 394.052 14.689 390.753 14.6889V15.6889V16.6889C393.663 16.689 395.911 17.5382 397.435 19.1058C398.962 20.6765 399.895 23.1042 399.895 26.5239L400.895 26.5239ZM390.753 15.6889V14.6889H375.27V15.6889V16.6889H390.753V15.6889ZM375.27 15.6889H374.27V37.3598H375.27H376.27V15.6889H375.27Z" fill="#0395B5" mask="url(#path-1-outside-1_260_688)"/>
</svg>
